<svg width="237" height="288" viewBox="0 0 237 288" fill="none" xmlns="http://www.w3.org/2000/svg">
<path d="M160.099 67.0068C160.099 67.0068 164.565 66.3571 164.536 63.9282C164.508 61.3256 158.637 60.2939 158.637 60.2939" stroke="#2D3033" stroke-linecap="round" stroke-linejoin="round"/>
<path d="M96.2298 7.2124C96.2298 7.2124 113.557 7.2124 120.628 7.2124C123.257 7.2124 125.388 9.3431 125.388 11.9723C125.388 23.6145 125.388 46.8969 125.388 58.5371C125.388 61.1663 123.257 63.297 120.628 63.297C103.026 63.297 67.826 63.297 50.2247 63.297C47.5955 63.297 45.4648 61.1663 45.4648 58.5371C45.4648 46.8949 45.4648 23.6125 45.4648 11.9723C45.4648 9.3431 47.5955 7.2124 50.2247 7.2124C60.7556 7.2124 83.8052 7.2124 83.8052 7.2124" stroke="#2D3033" stroke-linecap="round" stroke-linejoin="round"/>
<path d="M183.331 87.3291C181.333 90.1768 178.344 95.1001 178.336 99.0735C178.324 105.012 182.889 105.831 186.622 104.152" stroke="#2D3033" stroke-linecap="round" stroke-linejoin="round"/>
<path d="M105.535 20.3379C106.593 23.298 106.101 34.403 102.115 34.3866C100.207 34.5603 97.2509 33.1895 94.918 31.3366" stroke="#2D3033" stroke-linecap="round" stroke-linejoin="round"/>
<path fill-rule="evenodd" clip-rule="evenodd" d="M209.219 139.252C209.219 139.252 211.06 123.743 207.491 116.564C205.697 112.961 200.467 110.959 194.525 110.144C194.525 110.144 191.305 115.371 186.204 114.726C182.257 114.225 183.722 109.809 183.722 109.809C179.048 110.101 175.63 110.993 173.299 112.28C169.095 114.581 155.966 125.925 155.966 125.925L146.883 112.756L137.047 113.114C137.047 113.114 147.002 143.853 156.284 143.773C160.252 143.734 168.421 133.976 168.421 133.976L166.717 139.25H209.219V139.252Z" stroke="#2D3033" stroke-linecap="round" stroke-linejoin="round"/>
<path d="M157.831 128.505C157.077 127.592 155.094 124.617 155.094 124.617" stroke="#2D3033" stroke-linecap="round" stroke-linejoin="round"/>
<path d="M70.8477 177.932C87.736 183.548 114.371 192.618 114.994 194.187C116.144 197.043 118.524 212.751 121.617 227.147C125.98 247.455 129.709 268 129.709 268L147.874 279.542L116.499 278.906L116.183 267.403C116.183 267.403 107.258 252.887 102.024 235.394C100.159 229.126 96.5509 210.009 96.5509 210.009C96.5509 210.009 95.9053 209.878 94.7593 209.627" stroke="#2D3033" stroke-linecap="round" stroke-linejoin="round"/>
<path d="M96.2048 161.579C91.067 168.588 87.112 173.879 87.112 173.879L59.6642 173.521C59.6642 173.521 56.6101 181.137 61.4496 184.747C68.1134 189.744 93.5777 202.516 94.8463 210.013C95.8779 216.201 66.328 276.371 66.328 276.371L86.0416 287L52.6837 286.128C52.6837 286.128 54.0729 258.006 57.8011 243.648C60.3792 233.614 68.0338 217.193 68.0338 217.193C68.0338 217.193 43.9975 204.897 41.0231 203.629C23.6098 196.132 31.9406 174.833 31.9406 174.833C31.9406 174.833 17.3055 176.063 18.4945 164.124C19.6446 152.224 26.8641 135.289 32.8517 129.498C34.8394 127.588 41.3806 126.903 47.5174 126.701C47.5174 126.701 55.4355 132.347 59.3087 131.463C61.2229 131.026 58.9369 126.658 58.9369 126.658C58.9369 126.658 70.7692 123.191 78.0274 138.462C79.4554 141.516 85.8802 151.313 85.8802 151.313" stroke="#2D3033" stroke-linecap="round" stroke-linejoin="round"/>
<path d="M40.8646 143.14C40.2702 145.242 35.9066 158.251 36.7789 160.474C37.4142 162.061 70.8497 162.298 70.8497 162.298" stroke="#2D3033" stroke-linecap="round" stroke-linejoin="round"/>
<path d="M37.3346 153.413C37.018 153.612 22.3421 151.43 21.668 150.915" stroke="#2D3033" stroke-linecap="round" stroke-linejoin="round"/>
<path d="M52.6836 170.825L61.7273 137.825L112.774 137.428L105.951 171.617L52.6836 170.825Z" fill="black" stroke="#2D3033" stroke-linecap="round" stroke-linejoin="round"/>
<path d="M71.6408 264.749C71.6408 264.749 57.5594 263.638 55.1406 263.401" stroke="#2D3033" stroke-linecap="round" stroke-linejoin="round"/>
<path d="M127.367 257.728L111.621 258.402" stroke="#2D3033" stroke-linecap="round" stroke-linejoin="round"/>
<path d="M58.8702 177.21C58.8702 177.21 58.6332 179.629 60.0592 182.089C61.4871 184.548 64.58 187.047 64.58 187.047L85.6419 200.135L69.5441 181.692L77.6768 180.213L70.8475 177.932L58.8702 177.21Z" fill="black" stroke="#2D3033"/>
<path d="M156.484 63.0579L158.484 69.0087L160.597 72.0975L160.736 68.7574L158.987 63.9567" fill="black"/>
<path d="M156.484 63.0579L158.484 69.0087L160.597 72.0975L160.736 68.7574L158.987 63.9567" stroke="#2D3033" stroke-linecap="round" stroke-linejoin="round"/>
<path d="M157.32 59.3747L154.098 50.5332L152.398 50.8968L154.917 58.3941" fill="black"/>
<path d="M157.32 59.3747L154.098 50.5332L152.398 50.8968L154.917 58.3941" stroke="#2D3033" stroke-linecap="round" stroke-linejoin="round"/>
<path d="M57.481 100.144C60.8129 104.546 64.8986 109.942 65.6912 115.533C66.6146 121.927 59.9058 122.838 55.4688 120.428" stroke="#2D3033" stroke-linecap="round" stroke-linejoin="round"/>
<path d="M52.9783 112.487C53.2786 110.93 53.6238 109.443 54.1509 108.37C55.6074 105.404 59.3826 105.3 61.0067 102.348C62.6308 99.3961 62.6287 96.2011 60.5634 95.2103C56.2918 93.1593 52.1652 98.1643 52.1652 98.1643C52.1652 98.1643 49.1418 96.2379 46.4677 98.8772C43.5158 101.792 45.8405 104.522 45.8405 104.522C45.8405 104.522 39.4566 107.104 42.8886 114.558C43.9958 116.961 47.8323 120.536 50.2306 120.037C51.1397 119.847 51.679 118.619 52.0917 116.981L51.4257 116.166L50.7699 114.35L51.0682 113.173L52.0222 112.47L52.9783 112.487Z" fill="black" stroke="#2D3033"/>
<path d="M48.5103 119.843L47.5195 126.699" stroke="#2D3033" stroke-linecap="round" stroke-linejoin="round"/>
<path d="M58.937 126.656L58.5039 121.492" stroke="#2D3033" stroke-linecap="round" stroke-linejoin="round"/>
<path d="M53.7621 112.797C53.1696 112.476 52.0685 112.076 51.2534 112.944C49.7785 114.515 52.0379 117.727 53.5169 117.729C54.8713 117.729 55.1492 116.39 55.1492 116.39" stroke="#2D3033" stroke-linecap="round" stroke-linejoin="round"/>
<path d="M40.5135 144.302C40.5135 144.302 39.2633 159.616 44.6197 161.579L41.1223 161.324L37.6556 160.858L36.7812 160.474L37.0468 156.727L40.5135 144.302Z" fill="black" stroke="#2D3033"/>
<path d="M131.375 170.191H4.88756C2.74664 170.191 1 171.936 1 174.079C1 176.22 2.7446 177.967 4.88756 177.967H131.375C133.516 177.967 135.263 176.222 135.263 174.079C135.224 171.936 133.518 170.191 131.375 170.191Z" fill="black" stroke="#2D3033" stroke-linecap="round" stroke-linejoin="round"/>
<path d="M189.488 94.6712C189.413 93.801 189.256 93.0288 188.916 92.4629C187.229 89.658 181.703 87.6683 181.703 83.9033C181.703 80.4652 184.128 79.5847 186.232 79.5847C189.695 79.5847 190.871 83.1699 190.871 83.1699C190.871 83.1699 193.452 82.0035 195.686 84.0586C197.523 85.748 196.544 88.4854 196.544 88.4854C196.544 88.4854 200.089 89.4374 199.829 94.2524C199.572 99.0674 195.864 103.116 192.876 103.116C190.447 103.116 189.817 101.333 189.642 99.1635" stroke="#2D3033" stroke-linecap="round" stroke-linejoin="round"/>
<path d="M188.381 94.6179C193.691 94.3319 191.18 100.955 187.125 99.0141" stroke="#2D3033" stroke-linecap="round" stroke-linejoin="round"/>
<path fill-rule="evenodd" clip-rule="evenodd" d="M198.185 132.162L197.078 139.252L198.185 132.162Z" fill="white"/>
<path d="M198.185 132.162L197.078 139.252" stroke="#2D3033" stroke-linecap="round" stroke-linejoin="round"/>
<path fill-rule="evenodd" clip-rule="evenodd" d="M183.723 109.811L185.077 104.687L183.723 109.811Z" fill="white"/>
<path d="M183.723 109.811L185.077 104.687" stroke="#2D3033" stroke-linecap="round" stroke-linejoin="round"/>
<path fill-rule="evenodd" clip-rule="evenodd" d="M194.523 110.146L193.59 103.039L194.523 110.146Z" fill="white"/>
<path d="M194.523 110.146L193.59 103.039" stroke="#2D3033" stroke-linecap="round" stroke-linejoin="round"/>
<path d="M183.722 109.811L185.077 104.687C181.739 105.515 178.325 104.209 178.335 99.0737C178.344 95.0942 181.34 90.1648 183.338 87.3191C182.382 86.3242 181.702 85.221 181.702 83.9014C181.702 83.6399 181.72 83.3988 181.747 83.168H160.963C158.334 83.168 156.203 85.2987 156.203 87.9278V125.721C157.968 124.203 169.422 114.401 173.298 112.281C175.631 110.996 179.048 110.103 183.722 109.811Z" fill="black" stroke="#2D3033" stroke-linecap="round" stroke-linejoin="round"/>
<path d="M231.366 83.168H194.297C194.756 83.3559 195.228 83.6358 195.684 84.0566C197.52 85.7461 196.542 88.4835 196.542 88.4835C196.542 88.4835 200.086 89.4355 199.827 94.2505C199.59 98.6855 196.423 102.471 193.59 103.039L194.523 110.146C200.466 110.961 205.696 112.963 207.489 116.567C211.058 123.745 209.218 139.255 209.218 139.255H231.366C233.996 139.255 236.126 137.124 236.126 134.495V87.9278C236.126 85.3007 233.996 83.168 231.366 83.168Z" fill="black" stroke="#2D3033" stroke-linecap="round" stroke-linejoin="round"/>
<path d="M173.098 122.495C173.098 122.495 170.126 128.703 168.422 133.978" stroke="#2D3033" stroke-linecap="round" stroke-linejoin="round"/>
<path d="M166.719 139.252H163.43" stroke="#2D3033" stroke-linecap="round" stroke-linejoin="round"/>
<path d="M168.422 133.978L163.43 139.252H166.719L168.422 133.978Z" fill="black" stroke="#2D3033"/>
<path d="M140.845 100.82L130.03 113.145L115.082 100.028L134.489 77.9116L149.437 91.0288L143.492 97.8029" stroke="#2D3033" stroke-linecap="round" stroke-linejoin="round"/>
<path d="M137.048 113.114L135.203 107.249" stroke="#2D3033" stroke-linecap="round" stroke-linejoin="round"/>
<path d="M140.844 100.82C140.844 100.82 138.487 93.9151 139.962 93.0326C141.437 92.1521 143.837 97.7046 144.095 100.356C144.464 104.156 143.504 107.249 145.755 112.797" stroke="#2D3033" stroke-linecap="round" stroke-linejoin="round"/>
<path d="M121.57 92.6343C123.209 97.7885 126.504 103.378 129.45 104.689C135.204 107.251 139.592 85.231 136.126 85.1207C132.994 85.0206 132.212 97.5964 137.554 104.573" stroke="#2D3033" stroke-linecap="round" stroke-linejoin="round"/>
<path d="M120.094 104.424C122.825 99.0225 124.976 92.6549 125.372 88.3057" stroke="#2D3033" stroke-linecap="round" stroke-linejoin="round"/>
<path d="M96.9889 36.0472V32.7542V36.0472Z" fill="black"/>
<path d="M96.9889 36.0472V32.7542" stroke="#2D3033" stroke-linecap="round" stroke-linejoin="round"/>
<path d="M85.7227 35.7715L88.2619 28.0005L85.7227 35.7715Z" fill="black"/>
<path d="M85.7227 35.7715L88.2619 28.0005" stroke="#2D3033" stroke-linecap="round" stroke-linejoin="round"/>
<path d="M96.9872 22.8236C96.6195 22.0207 95.9228 21.0177 94.8095 21.3629C93.0302 21.9166 92.6543 25.4364 93.929 26.513C94.9178 27.3485 95.9964 26.3986 95.9964 26.3986" stroke="#2D3033" stroke-linecap="round" stroke-linejoin="round"/>
<path d="M94.658 26.8584C93.8634 28.0187 92.7664 28.8338 91.0953 28.8338C85.5612 28.8338 84.9014 21.7329 87.0382 17.3775C89.0116 13.3551 92.2352 11.2285 95.083 10.1458C101.522 7.69436 109.105 12.1212 109.027 16.879C108.991 19.1548 107.743 20.311 105.534 20.3376C103.326 20.3662 101.518 18.0047 98.5742 18.9934C97.6386 19.308 97.1176 20.597 96.6049 22.1455" stroke="#2D3033" stroke-linecap="round" stroke-linejoin="round"/>
<path d="M89.8822 13.4247C86.5135 13.3532 83.8047 10.5994 83.8047 7.21233C83.8047 3.78033 86.5871 1 90.017 1C93.447 1 96.2293 3.78237 96.2293 7.21233C96.2293 8.20107 95.9985 9.1367 95.5858 9.96814" stroke="#2D3033" stroke-linecap="round" stroke-linejoin="round"/>
<path fill-rule="evenodd" clip-rule="evenodd" d="M108.688 38.4273C114.543 41.8205 129.076 58.6557 129.076 58.6557L148.389 58.3799L145.494 67.9793C145.494 67.9793 133.597 70.1202 125.623 67.9793C121.936 66.9885 119.078 65.0723 117.074 63.2991L84.0205 63.3277L84.8785 54.3146C84.9214 53.8652 84.5925 53.4668 84.1431 53.4239C83.6937 53.381 83.2953 53.7099 83.2524 54.1593L82.3801 63.3277L72.6725 63.3358C72.6725 63.3358 70.9279 49.1359 74.4967 41.9165C76.1228 38.6643 85.7222 35.7695 85.7222 35.7695L94.0918 42.513L96.9865 36.0474C96.9865 36.0474 105.031 36.3088 108.688 38.4273ZM110.771 59.5651C112.103 60.7683 113.386 61.9287 114.775 63.2974H117.075C115.213 61.378 113.59 59.913 111.893 58.3804L111.864 58.3537L111.847 58.3383C110.685 57.2889 109.485 56.2043 108.119 54.8992C108.295 53.1587 107.794 51.2118 106.646 49.314C106.413 48.9279 105.911 48.8033 105.525 49.0382C105.139 49.2711 105.016 49.7737 105.249 50.1598C106.558 52.3231 106.879 54.5008 106.127 56.1351C105.494 57.5079 104.166 58.3986 102.285 58.7091C101.839 58.7827 101.539 59.2035 101.613 59.6488C101.678 60.0492 102.025 60.3332 102.418 60.3332C102.462 60.3332 102.507 60.3311 102.552 60.323C104.959 59.9246 106.757 58.6805 107.613 56.8195C107.621 56.8021 107.628 56.7837 107.635 56.7653C107.642 56.747 107.649 56.7286 107.657 56.7112C108.701 57.6932 109.653 58.5542 110.574 59.3872C110.64 59.4466 110.705 59.5059 110.771 59.5651Z" fill="black"/>
<path d="M129.076 58.6557L128.697 58.9824L128.85 59.1589L129.083 59.1556L129.076 58.6557ZM108.688 38.4273L108.939 37.9947L108.939 37.9946L108.688 38.4273ZM148.389 58.3799L148.868 58.5242L149.065 57.8702L148.382 57.8799L148.389 58.3799ZM145.494 67.9793L145.583 68.4714L145.884 68.4171L145.973 68.1236L145.494 67.9793ZM125.623 67.9793L125.494 68.4621L125.494 68.4622L125.623 67.9793ZM117.074 63.2991L117.405 62.9246L117.263 62.7989L117.074 62.7991L117.074 63.2991ZM84.0205 63.3277L83.5228 63.2803L83.4706 63.8281L84.021 63.8277L84.0205 63.3277ZM84.8785 54.3146L84.3808 54.2671L84.3808 54.2672L84.8785 54.3146ZM83.2524 54.1593L82.7547 54.1118L82.7547 54.112L83.2524 54.1593ZM82.3801 63.3277L82.3805 63.8277L82.8348 63.8273L82.8779 63.375L82.3801 63.3277ZM72.6725 63.3358L72.1762 63.3968L72.2302 63.8362L72.6729 63.8358L72.6725 63.3358ZM74.4967 41.9165L74.0495 41.6929L74.0485 41.6949L74.4967 41.9165ZM85.7222 35.7695L86.0359 35.3802L85.8305 35.2146L85.5779 35.2908L85.7222 35.7695ZM94.0918 42.513L93.7781 42.9023L94.2831 43.3093L94.5482 42.7173L94.0918 42.513ZM96.9865 36.0474L97.0028 35.5476L96.6673 35.5367L96.5302 35.843L96.9865 36.0474ZM114.775 63.2974L114.424 63.6535L114.57 63.7974H114.775V63.2974ZM110.771 59.5651L110.435 59.9359L110.436 59.9361L110.771 59.5651ZM117.075 63.2974V63.7974H118.257L117.434 62.9492L117.075 63.2974ZM111.893 58.3804L112.228 58.0093L112.228 58.0093L111.893 58.3804ZM111.864 58.3537L111.528 58.7246L111.529 58.7247L111.864 58.3537ZM111.847 58.3383L112.182 57.9673L112.182 57.9673L111.847 58.3383ZM108.119 54.8992L107.622 54.849L107.597 55.092L107.774 55.2607L108.119 54.8992ZM106.646 49.314L106.218 49.5723L106.218 49.5728L106.646 49.314ZM105.525 49.0382L105.783 49.4664L105.785 49.4654L105.525 49.0382ZM105.249 50.1598L104.821 50.418L104.821 50.4187L105.249 50.1598ZM106.127 56.1351L106.581 56.3446L106.582 56.3441L106.127 56.1351ZM102.285 58.7091L102.203 58.2158L102.203 58.2158L102.285 58.7091ZM101.613 59.6488L102.106 59.5683L102.106 59.5674L101.613 59.6488ZM102.552 60.323L102.471 59.8296L102.463 59.831L102.552 60.323ZM107.613 56.8195L107.16 56.6066L107.158 56.6105L107.613 56.8195ZM107.657 56.7112L108 56.3472L107.498 55.8748L107.205 56.4983L107.657 56.7112ZM110.574 59.3872L110.909 59.0163L110.909 59.0163L110.574 59.3872ZM129.076 58.6557C129.454 58.3289 129.454 58.3288 129.454 58.3287C129.454 58.3286 129.454 58.3284 129.453 58.3281C129.453 58.3276 129.452 58.3268 129.451 58.3257C129.45 58.3236 129.447 58.3205 129.443 58.3164C129.436 58.3082 129.426 58.296 129.412 58.2799C129.384 58.2478 129.343 58.2001 129.289 58.1378C129.18 58.0132 129.021 57.8303 128.816 57.5963C128.406 57.1284 127.815 56.4564 127.087 55.6395C125.631 54.0059 123.628 51.7918 121.441 49.471C119.255 47.151 116.882 44.7204 114.686 42.6552C112.5 40.5993 110.457 38.8747 108.939 37.9947L108.437 38.8599C109.846 39.6765 111.816 41.3287 114.001 43.3837C116.177 45.4295 118.534 47.8439 120.714 50.1568C122.892 52.4689 124.888 54.6758 126.34 56.3048C127.066 57.1192 127.656 57.789 128.064 58.255C128.268 58.488 128.426 58.67 128.534 58.7937C128.587 58.8556 128.628 58.9028 128.656 58.9346C128.67 58.9505 128.68 58.9625 128.687 58.9705C128.69 58.9745 128.693 58.9775 128.695 58.9795C128.696 58.9805 128.696 58.9812 128.697 58.9817C128.697 58.9819 128.697 58.9821 128.697 58.9822C128.697 58.9823 128.697 58.9824 129.076 58.6557ZM148.382 57.8799L129.069 58.1557L129.083 59.1556L148.396 58.8798L148.382 57.8799ZM145.973 68.1236L148.868 58.5242L147.91 58.2355L145.015 67.8349L145.973 68.1236ZM125.494 68.4622C129.562 69.5547 134.597 69.5495 138.582 69.281C140.581 69.1463 142.329 68.9442 143.577 68.7758C144.202 68.6916 144.702 68.6158 145.046 68.5608C145.218 68.5334 145.352 68.5111 145.442 68.4957C145.488 68.488 145.523 68.482 145.546 68.4778C145.558 68.4758 145.567 68.4742 145.573 68.4731C145.576 68.4726 145.578 68.4721 145.58 68.4718C145.581 68.4717 145.581 68.4716 145.582 68.4715C145.582 68.4715 145.582 68.4714 145.582 68.4714C145.583 68.4714 145.583 68.4714 145.494 67.9793C145.406 67.4872 145.406 67.4872 145.406 67.4872C145.406 67.4872 145.406 67.4872 145.405 67.4872C145.405 67.4873 145.405 67.4873 145.404 67.4874C145.403 67.4877 145.401 67.488 145.398 67.4885C145.393 67.4895 145.385 67.4909 145.374 67.4928C145.352 67.4967 145.318 67.5024 145.275 67.5099C145.187 67.5247 145.057 67.5464 144.889 67.5733C144.551 67.6271 144.059 67.7018 143.444 67.7848C142.212 67.9509 140.487 68.1503 138.515 68.2832C134.558 68.5499 129.658 68.5448 125.753 67.4964L125.494 68.4622ZM116.743 63.6735C118.788 65.4831 121.712 67.4462 125.494 68.4621L125.753 67.4964C122.159 66.5308 119.368 64.6615 117.405 62.9246L116.743 63.6735ZM84.021 63.8277L117.074 63.7991L117.074 62.7991L84.0201 62.8277L84.021 63.8277ZM84.3808 54.2672L83.5228 63.2803L84.5183 63.3751L85.3763 54.362L84.3808 54.2672ZM84.0956 53.9216C84.2701 53.9383 84.3974 54.0925 84.3808 54.2671L85.3763 54.3621C85.4454 53.6378 84.915 52.9953 84.1906 52.9262L84.0956 53.9216ZM83.7501 54.2068C83.7668 54.0323 83.921 53.905 84.0956 53.9216L84.1906 52.9262C83.4663 52.857 82.8238 53.3875 82.7547 54.1118L83.7501 54.2068ZM82.8779 63.375L83.7502 54.2067L82.7547 54.112L81.8824 63.2803L82.8779 63.375ZM72.6729 63.8358L82.3805 63.8277L82.3797 62.8277L72.672 62.8358L72.6729 63.8358ZM74.0485 41.6949C72.2087 45.4167 71.7562 50.8745 71.7463 55.3323C71.7412 57.5745 71.8485 59.5883 71.957 61.0415C72.0113 61.7684 72.0659 62.3557 72.107 62.7619C72.1276 62.9651 72.1448 63.123 72.1569 63.2305C72.1629 63.2843 72.1677 63.3255 72.171 63.3534C72.1726 63.3674 72.1739 63.378 72.1748 63.3853C72.1752 63.3889 72.1756 63.3917 72.1758 63.3936C72.1759 63.3946 72.176 63.3953 72.1761 63.3959C72.1761 63.3961 72.1761 63.3964 72.1761 63.3965C72.1762 63.3967 72.1762 63.3968 72.6725 63.3358C73.1687 63.2749 73.1687 63.2749 73.1687 63.2749C73.1687 63.2748 73.1687 63.2747 73.1687 63.2745C73.1686 63.2742 73.1686 63.2736 73.1685 63.2729C73.1683 63.2714 73.168 63.269 73.1676 63.2658C73.1668 63.2593 73.1657 63.2495 73.1641 63.2364C73.161 63.2101 73.1564 63.1707 73.1506 63.1187C73.1389 63.0147 73.1221 62.8605 73.1019 62.6612C73.0616 62.2627 73.0078 61.6843 72.9542 60.9671C72.8471 59.5322 72.7413 57.5449 72.7463 55.3346C72.7562 50.8876 73.2159 45.6357 74.9449 42.1381L74.0485 41.6949ZM85.7222 35.7695C85.5779 35.2908 85.5778 35.2909 85.5776 35.2909C85.5775 35.2909 85.5774 35.291 85.5772 35.291C85.5768 35.2911 85.5763 35.2913 85.5756 35.2915C85.5743 35.2919 85.5724 35.2925 85.5699 35.2932C85.5649 35.2947 85.5577 35.2969 85.5483 35.2998C85.5293 35.3056 85.5016 35.3142 85.4655 35.3254C85.3933 35.3479 85.2879 35.381 85.1534 35.4243C84.8845 35.5109 84.4994 35.6379 84.0325 35.8005C83.0995 36.1253 81.8365 36.5933 80.5201 37.1648C79.2062 37.7353 77.8263 38.4144 76.6655 39.1639C75.5218 39.9024 74.5191 40.7537 74.0495 41.6929L74.9439 42.1401C75.2874 41.4531 76.0944 40.723 77.2079 40.004C78.3044 39.2961 79.6292 38.6418 80.9184 38.0821C82.2052 37.5234 83.4437 37.0644 84.3613 36.7448C84.8198 36.5852 85.1974 36.4607 85.4598 36.3762C85.591 36.334 85.6933 36.3018 85.7625 36.2803C85.7972 36.2695 85.8235 36.2614 85.841 36.256C85.8498 36.2533 85.8563 36.2513 85.8606 36.25C85.8628 36.2494 85.8643 36.2489 85.8653 36.2486C85.8658 36.2485 85.8662 36.2484 85.8664 36.2483C85.8665 36.2483 85.8665 36.2483 85.8666 36.2482C85.8666 36.2482 85.8666 36.2482 85.7222 35.7695ZM94.4055 42.1237L86.0359 35.3802L85.4085 36.1589L93.7781 42.9023L94.4055 42.1237ZM96.5302 35.843L93.6355 42.3087L94.5482 42.7173L97.4429 36.2517L96.5302 35.843ZM108.939 37.9946C107.016 36.8808 104.001 36.2775 101.532 35.9473C100.285 35.7805 99.1548 35.6807 98.3361 35.6226C97.9265 35.5935 97.5944 35.5748 97.3642 35.5633C97.249 35.5576 97.1593 35.5537 97.0981 35.5512C97.0675 35.55 97.044 35.5491 97.028 35.5485C97.02 35.5482 97.0138 35.548 97.0096 35.5479C97.0075 35.5478 97.0059 35.5477 97.0047 35.5477C97.0042 35.5477 97.0037 35.5477 97.0034 35.5476C97.0032 35.5476 97.0031 35.5476 97.003 35.5476C97.0029 35.5476 97.0028 35.5476 96.9865 36.0474C96.9703 36.5471 96.9703 36.5471 96.9703 36.5471C96.9703 36.5471 96.9703 36.5471 96.9704 36.5471C96.9706 36.5471 96.9709 36.5471 96.9713 36.5471C96.9721 36.5472 96.9734 36.5472 96.9752 36.5473C96.9787 36.5474 96.9842 36.5476 96.9915 36.5478C97.0062 36.5484 97.0283 36.5492 97.0575 36.5504C97.1159 36.5528 97.2026 36.5566 97.3145 36.5621C97.5385 36.5732 97.8635 36.5915 98.2653 36.6201C99.0692 36.6772 100.178 36.7751 101.4 36.9385C103.868 37.2686 106.703 37.8553 108.437 38.8599L108.939 37.9946ZM115.126 62.9412C113.728 61.5639 112.437 60.3969 111.106 59.1941L110.436 59.9361C111.768 61.1398 113.043 62.2934 114.424 63.6535L115.126 62.9412ZM117.075 62.7974H114.775V63.7974H117.075V62.7974ZM111.558 58.7515C113.256 60.2844 114.867 61.7394 116.716 63.6456L117.434 62.9492C115.559 61.0166 113.925 59.5417 112.228 58.0093L111.558 58.7515ZM111.529 58.7247L111.558 58.7515L112.228 58.0093L112.199 57.9826L111.529 58.7247ZM111.511 58.7092L111.528 58.7246L112.199 57.9827L112.182 57.9673L111.511 58.7092ZM107.774 55.2607C109.145 56.5712 110.35 57.6601 111.511 58.7092L112.182 57.9673C111.021 56.9178 109.825 55.8374 108.465 54.5377L107.774 55.2607ZM106.218 49.5728C107.324 51.3997 107.784 53.2392 107.622 54.849L108.617 54.9494C108.805 53.0782 108.265 51.0239 107.074 49.0552L106.218 49.5728ZM105.785 49.4654C105.933 49.3749 106.128 49.4225 106.218 49.5723L107.074 49.0558C106.699 48.4334 105.888 48.2317 105.265 48.6111L105.785 49.4654ZM105.677 49.9015C105.586 49.7502 105.635 49.5556 105.783 49.4664L105.266 48.6101C104.642 48.9866 104.446 49.7972 104.821 50.418L105.677 49.9015ZM106.582 56.3441C107.428 54.503 107.034 52.1436 105.677 49.9009L104.821 50.4187C106.083 52.5027 106.33 54.4987 105.673 55.9262L106.582 56.3441ZM102.366 59.2024C104.363 58.8728 105.861 57.9071 106.581 56.3446L105.673 55.9257C105.128 57.1087 103.969 57.9244 102.203 58.2158L102.366 59.2024ZM102.106 59.5674C102.077 59.3934 102.194 59.2308 102.366 59.2024L102.203 58.2158C101.484 58.3345 101.001 59.0136 101.119 59.7303L102.106 59.5674ZM102.418 59.8332C102.265 59.8332 102.131 59.722 102.106 59.5683L101.119 59.7294C101.225 60.3764 101.785 60.8332 102.418 60.8332V59.8332ZM102.463 59.831C102.46 59.8315 102.449 59.8332 102.418 59.8332V60.8332C102.476 60.8332 102.555 60.8307 102.642 60.8149L102.463 59.831ZM107.158 56.6105C106.386 58.2905 104.75 59.4525 102.471 59.8297L102.634 60.8163C105.168 60.3968 107.128 59.0706 108.067 57.0284L107.158 56.6105ZM107.169 56.5842C107.165 56.594 107.163 56.5992 107.161 56.6037C107.16 56.6078 107.159 56.6083 107.16 56.6066L108.065 57.0324C108.082 56.9967 108.095 56.962 108.101 56.9465L107.169 56.5842ZM107.205 56.4983C107.188 56.534 107.175 56.5688 107.169 56.5842L108.101 56.9465C108.105 56.9367 108.107 56.9314 108.109 56.9269C108.11 56.9228 108.111 56.9224 108.11 56.9241L107.205 56.4983ZM110.909 59.0163C109.988 58.1831 109.039 57.3253 108 56.3472L107.315 57.0752C108.362 58.0612 109.318 58.9254 110.239 59.7581L110.909 59.0163ZM111.106 59.1942C111.041 59.135 110.975 59.0757 110.909 59.0163L110.239 59.7581C110.304 59.8175 110.37 59.8768 110.435 59.9359L111.106 59.1942Z" fill="#2D3033"/>
<path d="M148.391 59.1073C148.391 59.1073 154.85 57.8346 156.205 58.664C157.559 59.4934 162.106 62.4147 161.498 63.8672C160.889 65.3196 154.464 62.1512 154.464 62.1512" stroke="#2D3033" stroke-linecap="round" stroke-linejoin="round"/>
<path d="M145.824 66.8923C151.254 66.302 153.193 68.5716 158 67.5644" stroke="#2D3033" stroke-linecap="round" stroke-linejoin="round"/>
<path fill-rule="evenodd" clip-rule="evenodd" d="M72.6725 63.3378C72.6725 63.3378 70.9279 49.1379 74.4967 41.9184C76.1228 38.6662 85.7222 35.7715 85.7222 35.7715L94.0918 42.515L96.9865 36.0493C96.9865 36.0493 105.031 36.3108 108.688 38.4292C114.543 41.8224 129.076 58.6576 129.076 58.6576L148.391 58.3798L145.496 67.9792C145.496 67.9792 133.597 70.1201 125.625 67.9792C121.938 66.9884 119.08 65.0722 117.076 63.299L72.6725 63.3378Z" stroke="#2D3033" stroke-linecap="round" stroke-linejoin="round"/>
</svg>
